<?xml version="1.0" encoding="iso-8859-1"?>
<!-- Generator: Adobe Illustrator 16.0.0, SVG Export Plug-In . SVG Version: 6.00 Build 0)  -->
<!DOCTYPE svg PUBLIC "-//W3C//DTD SVG 1.1//EN" "http://www.w3.org/Graphics/SVG/1.1/DTD/svg11.dtd">
<!-- License: CC0. Made by SVG Repo: https://www.svgrepo.com/svg/74265/extra-discounts-interface-commercial-symbol-of-a-label-with-plus-sign -->
<svg version="1.1" id="Capa_1" xmlns="http://www.w3.org/2000/svg" xmlns:xlink="http://www.w3.org/1999/xlink" x="0px" y="0px"
	 width="27.483px" height="27.483px" viewBox="0 0 27.483 27.483" style="enable-background:new 0 0 27.483 27.483;"
	 xml:space="preserve">
<g>
	<path d="M27.095,12.917L13.443,0.782c-0.5-0.444-1.456-0.795-2.124-0.781L1.454,0.213C0.786,0.227,0.227,0.786,0.213,1.454
		L0,11.319c-0.014,0.668,0.337,1.624,0.781,2.123l12.135,13.652c0.444,0.5,1.194,0.521,1.667,0.048l12.56-12.561
		C27.615,14.11,27.594,13.359,27.095,12.917z M6.684,6.684c-0.712,0.712-1.867,0.712-2.579,0C3.393,5.973,3.394,4.818,4.105,4.106
		c0.711-0.712,1.865-0.712,2.577,0C7.396,4.818,7.396,5.973,6.684,6.684z M19.824,14.744h-4.557v4.795h-2.136v-4.795H8.575v-2.048
		h4.557V7.944h2.136v4.752h4.557V14.744z"/>
</g>
</svg>
